<svg width="24" height="22" viewBox="0 0 24 22" fill="none" xmlns="http://www.w3.org/2000/svg">
<path d="M17.3115 1.5C19.0417 1.5 20.4513 2.1 21.4258 3.07422C22.4002 4.04842 23 5.45753 23 7.18652C22.9999 9.06456 22.2685 10.6362 21.0977 12.0977C19.9076 13.583 18.3138 14.8949 16.6445 16.2646C15.099 17.5323 13.4106 18.9153 12.1006 20.4658C12.0809 20.489 12.0543 20.5 12.0303 20.5H11.9668C11.9545 20.4999 11.9418 20.4968 11.9297 20.4912L11.8955 20.4658C10.9146 19.303 9.71864 18.2353 8.53125 17.2393L7.35449 16.2656L6.12109 15.2451C4.91268 14.2282 3.79364 13.2108 2.90137 12.0967C1.73096 10.6353 1.00011 9.06412 1 7.18652C1 5.45755 1.59972 4.0484 2.57422 3.07422C3.54881 2.10001 4.95864 1.5 6.68945 1.5C8.5327 1.5 10.2278 2.85014 11.2744 3.94727L11.998 4.70605L12.7217 3.94727C13.7675 2.85102 15.4668 1.50005 17.3115 1.5Z" stroke="white" stroke-width="2"/>
</svg>
